<svg width="18" height="18" viewBox="0 0 18 18" fill="none" xmlns="http://www.w3.org/2000/svg">
<path fill-rule="evenodd" clip-rule="evenodd" d="M9.00745 0C4.02656 0 0 4.12498 0 9.22815C0 13.3074 2.57996 16.7604 6.15904 17.9825C6.60652 18.0744 6.77043 17.7839 6.77043 17.5396C6.77043 17.3257 6.75568 16.5924 6.75568 15.8283C4.25002 16.3784 3.72824 14.7283 3.72824 14.7283C3.32557 13.6588 2.72893 13.3839 2.72893 13.3839C1.90883 12.8186 2.78867 12.8186 2.78867 12.8186C3.69837 12.8797 4.17572 13.7658 4.17572 13.7658C4.98089 15.1713 6.27833 14.7742 6.8003 14.5297C6.87478 13.9338 7.11355 13.5213 7.36706 13.2922C5.36863 13.0783 3.26602 12.2838 3.26602 8.73915C3.26602 7.73078 3.6237 6.90578 4.19047 6.26416C4.10105 6.03504 3.7878 5.0876 4.28008 3.81955C4.28008 3.81955 5.04062 3.57505 6.75549 4.76679C7.48969 4.56479 8.24685 4.46203 9.00745 4.46117C9.76799 4.46117 10.5433 4.56823 11.2592 4.76679C12.9743 3.57505 13.7348 3.81955 13.7348 3.81955C14.2271 5.0876 13.9137 6.03504 13.8242 6.26416C14.4059 6.90578 14.7489 7.73078 14.7489 8.73915C14.7489 12.2838 12.6463 13.0629 10.6329 13.2922C10.9611 13.5824 11.2443 14.1324 11.2443 15.0033C11.2443 16.2408 11.2295 17.234 11.2295 17.5394C11.2295 17.7839 11.3936 18.0744 11.8409 17.9827C15.42 16.7602 18 13.3074 18 9.22815C18.0147 4.12498 13.9734 0 9.00745 0Z" fill="#D9D9D9"/>
</svg>
